/vscmnt/brussel_pixiu_data/_data_brussel/112/vsc11236/PredSimResults/SUBJ09opt3D/trackIG/worker_10.mot
version=1
nRows=9
nColumns=50
inDegrees=yes
endheader
                time	         pelvis_tilt	         pelvis_list	     pelvis_rotation	           pelvis_tx	           pelvis_ty	           pelvis_tz	       hip_flexion_r	     hip_adduction_r	      hip_rotation_r	        knee_angle_r	       ankle_angle_r	         mtp_angle_r	       hip_flexion_l	     hip_adduction_l	      hip_rotation_l	        knee_angle_l	       ankle_angle_l	         mtp_angle_l	    lumbar_extension	      lumbar_bending	     lumbar_rotation	 ercspn_r/activation	 intobl_r/activation	 extobl_r/activation	    abd_r/activation	    add_r/activation	hamstrings_r/activation	bifemsh_r/activation	glut_max_r/activation	iliopsoas_r/activation	rect_fem_r/activation	  vasti_r/activation	gastroc_r/activation	 soleus_r/activation	tib_ant_r/activation	 ercspn_l/activation	 intobl_l/activation	 extobl_l/activation	    abd_l/activation	    add_l/activation	hamstrings_l/activation	bifemsh_l/activation	glut_max_l/activation	iliopsoas_l/activation	rect_fem_l/activation	  vasti_l/activation	gastroc_l/activation	 soleus_l/activation	tib_ant_l/activation	
          1.13560982	         -5.29500840	         -2.25025612	          9.51697691	          1.70341473	          0.97783828	         -0.00378181	         31.99737376	         -1.09023621	         -9.30997441	         -7.38311498	          5.61238006	          0.26181939	        -16.30474504	         -3.93426511	         -2.36448158	         -9.13408224	          1.23202289	         40.70102913	        -12.70218898	          0.97979070	         -6.70080257	          0.05100761	          0.13599682	          0.01682051	          0.00999999	          0.27719503	          0.08634303	          0.16923465	          0.18169322	          0.14134045	          0.00999999	          0.00999999	          0.02000418	          0.01043782	          0.37813172	          0.04667963	          0.00999999	          0.00999999	          0.02209852	          0.08597570	          0.02369735	          0.21614212	          0.01189267	          0.13354877	          0.00999999	          0.00999999	          0.32400122	          0.18362879	          0.01366648	
          1.14696592	         -5.26701120	         -2.40401325	          9.51203895	          1.72534649	          0.97542084	         -0.00326516	         31.98964040	         -0.89229733	         -9.44908862	         -9.60713711	          5.15143713	          0.20999733	        -16.78826931	         -4.32270368	         -2.85859277	        -10.40899752	         -0.20400007	         42.38188981	        -12.18032346	          1.39807112	         -6.88987401	          0.04288991	          0.11435336	          0.01414358	          0.12833887	          0.26986592	          0.08043275	          0.14230149	          0.24046908	          0.11884656	          0.00999999	          0.00999999	          0.01682058	          0.01189267	          0.42845044	          0.07270805	          0.00999999	          0.00999999	          0.01858161	          0.07229294	          0.01992599	          0.18174378	          0.00999999	          0.18792389	          0.00999999	          0.00999999	          0.27243745	          0.15440485	          0.01149151	
          1.15832202	         -5.22467366	         -2.54905881	          9.46734927	          1.74724548	          0.97336421	         -0.00264729	         31.91842118	         -0.68242703	         -9.52821587	        -11.73825029	          4.59750864	          0.19576323	        -16.92286843	         -4.71920469	         -3.36244815	        -12.32534501	         -1.64611725	         43.75625485	        -11.68039520	          1.80400886	         -7.04533656	          0.03606412	          0.09615438	          0.01189267	          0.18946966	          0.29685500	          0.06763213	          0.11965465	          0.28647279	          0.09993251	          0.00999999	          0.00999999	          0.01414364	          0.00999999	          0.47885966	          0.07656252	          0.00999999	          0.00999999	          0.01562441	          0.06191070	          0.01675483	          0.15281983	          0.00999999	          0.26664368	          0.00999999	          0.00999999	          0.22907989	          0.12983180	          0.00999999	
          1.16967811	         -5.16915086	         -2.69119080	          9.38858528	          1.76874942	          0.97187219	         -0.00191710	         31.94036080	         -0.46213716	         -9.54232488	        -14.01100192	          4.07436374	          0.15304160	        -16.59311818	         -5.14110963	         -3.87202396	        -15.04488364	         -3.02358649	         44.53497549	        -11.24401883	          2.20698023	         -7.16543645	          0.06207492	          0.08085171	          0.00999999	          0.22641826	          0.33301032	          0.05686869	          0.10061199	          0.31672128	          0.08402856	          0.00999999	          0.13379159	          0.01189272	          0.00999999	          0.50249035	          0.13180500	          0.00999999	          0.00999999	          0.01313783	          0.13024222	          0.01408835	          0.12849904	          0.00999999	          0.23948088	          0.00999999	          0.00999999	          0.19262255	          0.10916948	          0.00999999	
          1.18103421	         -5.10388049	         -2.81387447	          9.27388514	          1.78973849	          0.97110950	         -0.00110293	         31.97012840	         -0.23941401	         -9.51643507	        -16.31825580	          3.88789936	          0.10153718	        -15.75263549	         -5.58090389	         -4.40592972	        -18.62565325	         -4.33623780	         44.40017202	        -10.88212234	          2.58984868	         -7.24601371	          0.05219589	          0.06798442	          0.00999999	          0.25167955	          0.31748114	          0.04781823	          0.08459991	          0.31482446	          0.07065568	          0.00999999	          0.26626834	          0.01000003	          0.00999999	          0.50487321	          0.14350302	          0.00999999	          0.00999999	          0.01104699	          0.18346758	          0.01184624	          0.10804882	          0.00999999	          0.20136826	          0.00999999	          0.00999999	          0.16196727	          0.09179550	          0.00999999	
          1.19239031	         -5.03445090	         -2.90729960	          9.11840928	          1.81012532	          0.97121936	         -0.00024166	         31.86930183	         -0.00626317	         -9.46131119	        -18.40583266	          4.07145150	          0.06259656	        -14.40366110	         -6.03819819	         -4.96766469	        -22.96365571	         -5.86103545	         43.41060763	        -10.60041099	          2.94411842	         -7.27902837	          0.04388908	          0.05716491	          0.00999999	          0.26972338	          0.31792220	          0.05161311	          0.07113610	          0.28158982	          0.05941105	          0.00999999	          0.31758930	          0.00999999	          0.00999999	          0.47486769	          0.13119612	          0.00999999	          0.00999999	          0.00999999	          0.22493973	          0.00999999	          0.09085319	          0.00999999	          0.16932113	          0.00999999	          0.00999999	          0.13619069	          0.07718654	          0.00999999	
          1.20374641	         -4.96484226	         -2.95702123	          8.91999040	          1.82986421	          0.97219527	          0.00062624	         31.57480431	          0.23295600	         -9.35419666	        -20.14055149	          4.54091956	          0.04216682	        -12.59854017	         -6.50640003	         -5.53648452	        -27.88132167	         -7.71140317	         41.41826350	        -10.40116414	          3.25704395	         -7.26029973	          0.03690427	          0.04806730	          0.00999999	          0.28967570	          0.30510289	          0.05491730	          0.05981502	          0.23677569	          0.04995597	          0.00999999	          0.35064993	          0.00999999	          0.00999999	          0.41645450	          0.11981515	          0.01049664	          0.00999999	          0.00999999	          0.24136948	          0.01480588	          0.07639419	          0.00999999	          0.14237421	          0.00999999	          0.00999999	          0.11451637	          0.06490254	          0.03880652	
          1.21510251	         -4.89745435	         -2.96428141	          8.68435627	          1.84891024	          0.97393036	          0.00145486	         31.07868568	          0.47570281	         -9.18600508	        -21.48813618	          5.23662960	          0.06834253	        -10.42082155	         -6.97754422	         -6.01807479	        -33.20538317	         -9.57489277	         37.91094452	        -10.28418309	          3.53297084	         -7.18984179	          0.03103107	          0.04041754	          0.00999999	          0.26442096	          0.25654673	          0.05976117	          0.05029564	          0.19909358	          0.04200564	          0.00999999	          0.38870818	          0.00999999	          0.00999999	          0.35547055	          0.15890889	          0.06311187	          0.05776774	          0.01000008	          0.20295629	          0.01244957	          0.06423630	          0.00999999	          0.11971580	          0.00999999	          0.00999999	          0.09629145	          0.05457351	          0.18321831	
          1.22645861	         -4.83311048	         -2.94111493	          8.40585715	          1.86721072	          0.97625926	          0.00221669	         30.39378846	          0.72520039	         -8.97623333	        -22.42563572	          5.96226633	          0.17819937	         -7.99961167	         -7.37085739	         -6.23761945	        -38.70883876	        -10.73597902	         32.97941505	        -10.25338403	          3.78082722	         -7.05298505	          0.02609257	          0.03398521	          0.00999999	          0.23090553	          0.21571813	          0.05025073	          0.04229125	          0.16740847	          0.03532057	          0.00999999	          0.38826095	          0.00999999	          0.00999999	          0.29889853	          0.16811886	          0.07212341	          0.09916698	          0.01189268	          0.17065643	          0.01046826	          0.05401330	          0.00999999	          0.10066341	          0.00999999	          0.00999999	          0.08096697	          0.04588831	          0.20622699	
